<?xml version="1.0" encoding="UTF-8" standalone="no"?>
<!DOCTYPE svg PUBLIC "-//W3C//DTD SVG 1.1//EN" "http://www.w3.org/Graphics/SVG/1.1/DTD/svg11.dtd">
<svg width="100%" height="100%" viewBox="0 0 959 135" version="1.1" xmlns="http://www.w3.org/2000/svg" xmlns:xlink="http://www.w3.org/1999/xlink" xml:space="preserve" xmlns:serif="http://www.serif.com/" style="fill-rule:evenodd;clip-rule:evenodd;stroke-linecap:round;stroke-miterlimit:5;">
    <g transform="matrix(1,0,0,1,-38.7024,-295.911)">
        <g transform="matrix(1.34297,0,0,1.34297,-82.5839,-53.4812)">
            <g transform="matrix(0.757275,0,0,0.757275,66.3652,35.2247)">
                <path d="M156.902,410.659L156.902,389.846" style="fill:none;stroke:rgb(230,210,160);stroke-width:7.37px;"/>
            </g>
            <g transform="matrix(4.63697e-17,0.757275,-0.757275,4.63697e-17,488.284,219.508)">
                <path d="M156.902,410.659L156.902,389.846" style="fill:none;stroke:rgb(230,210,160);stroke-width:7.37px;"/>
            </g>
        </g>
        <g transform="matrix(1.34297,0,0,1.34297,185.422,-74.4998)">
            <g transform="matrix(0.757275,0,0,0.757275,66.3652,35.2247)">
                <path d="M156.902,410.659L156.902,389.846" style="fill:none;stroke:rgb(230,210,160);stroke-width:7.37px;"/>
            </g>
            <g transform="matrix(4.63697e-17,0.757275,-0.757275,4.63697e-17,488.284,219.508)">
                <path d="M156.902,410.659L156.902,389.846" style="fill:none;stroke:rgb(230,210,160);stroke-width:7.37px;"/>
            </g>
        </g>
        <g transform="matrix(1.34297,0,0,1.34297,402.486,-128.747)">
            <g transform="matrix(0.757275,0,0,0.757275,66.3652,35.2247)">
                <path d="M156.902,410.659L156.902,389.846" style="fill:none;stroke:rgb(230,210,160);stroke-width:7.37px;"/>
            </g>
            <g transform="matrix(4.63697e-17,0.757275,-0.757275,4.63697e-17,488.284,219.508)">
                <path d="M156.902,410.659L156.902,389.846" style="fill:none;stroke:rgb(230,210,160);stroke-width:7.37px;"/>
            </g>
        </g>
        <g transform="matrix(1.34297,0,0,1.34297,644.6,-88.5868)">
            <g transform="matrix(0.757275,0,0,0.757275,66.3652,35.2247)">
                <path d="M156.902,410.659L156.902,389.846" style="fill:none;stroke:rgb(230,210,160);stroke-width:7.37px;"/>
            </g>
            <g transform="matrix(4.63697e-17,0.757275,-0.757275,4.63697e-17,488.284,219.508)">
                <path d="M156.902,410.659L156.902,389.846" style="fill:none;stroke:rgb(230,210,160);stroke-width:7.37px;"/>
            </g>
        </g>
        <g id="Layer3">
        </g>
        <g transform="matrix(-0.742347,-0.670016,0.670016,-0.742347,985.184,409.349)">
            <g id="Layer2">
                <circle cx="0" cy="0" r="12.103" style="fill:rgb(230,210,160);"/>
            </g>
        </g>
        <g transform="matrix(-0.742347,-0.670016,0.670016,-0.742347,50.8032,362.976)">
            <circle cx="0" cy="0" r="12.103" style="fill:rgb(230,210,160);"/>
        </g>
        <g>
            <g transform="matrix(1,0,0,1.30423,29,-129.596)">
                <path d="M35.912,386.843C34.009,386.219 33.124,384.528 33.938,383.069C34.752,381.61 36.958,380.932 38.861,381.556C41.157,382.309 43.447,383.049 45.734,383.776C47.646,384.383 48.555,386.067 47.762,387.533C46.97,388.999 44.774,389.695 42.862,389.088C40.549,388.353 38.233,387.604 35.912,386.843Z" style="fill:white;"/>
            </g>
            <g transform="matrix(1,0,0,1.30423,29,-129.596)">
                <path d="M56.886,393.381C54.954,392.813 53.986,391.149 54.727,389.667C55.467,388.186 57.638,387.444 59.57,388.011C61.887,388.692 64.209,389.359 66.54,390.013C68.484,390.558 69.485,392.21 68.774,393.7C68.063,395.191 65.908,395.959 63.964,395.414C61.598,394.75 59.24,394.073 56.886,393.381Z" style="fill:white;"/>
            </g>
            <g transform="matrix(1,0,0,1.30423,29,-129.596)">
                <path d="M78.256,399.214C76.289,398.72 75.215,397.095 75.86,395.586C76.504,394.078 78.624,393.255 80.591,393.749C82.935,394.338 85.295,394.913 87.674,395.475C89.652,395.941 90.764,397.552 90.155,399.068C89.547,400.585 87.446,401.438 85.468,400.971C83.046,400.399 80.643,399.814 78.256,399.214Z" style="fill:white;"/>
            </g>
            <g transform="matrix(1,0,0,1.30423,29,-129.596)">
                <path d="M100.017,404.179C98.018,403.768 96.829,402.191 97.364,400.658C97.898,399.125 99.956,398.213 101.955,398.623C104.329,399.11 106.726,399.584 109.15,400.044C111.159,400.425 112.387,401.986 111.889,403.526C111.392,405.067 109.357,406.007 107.348,405.626C104.878,405.157 102.436,404.675 100.017,404.179Z" style="fill:white;"/>
            </g>
            <g transform="matrix(1,0,0,1.30423,29,-129.596)">
                <path d="M166.88,413.651C164.823,413.473 163.342,412.048 163.575,410.471C163.807,408.894 165.665,407.758 167.722,407.937C170.158,408.148 172.628,408.349 175.132,408.541C177.191,408.699 178.696,410.109 178.49,411.688C178.284,413.267 176.445,414.421 174.386,414.263C171.849,414.069 169.348,413.865 166.88,413.651Z" style="fill:white;"/>
            </g>
            <g transform="matrix(1,0,0,1.30423,29,-129.596)">
                <path d="M189.416,415.276C187.352,415.155 185.804,413.772 185.962,412.19C186.119,410.608 187.922,409.421 189.986,409.542C192.434,409.685 194.914,409.82 197.427,409.946C199.493,410.05 201.059,411.42 200.924,413.003C200.789,414.587 199.002,415.788 196.937,415.684C194.396,415.557 191.89,415.42 189.416,415.276Z" style="fill:white;"/>
            </g>
            <g transform="matrix(1,0,0,1.30423,29,-129.596)">
                <path d="M211.986,416.326C209.919,416.253 208.317,414.906 208.413,413.321C208.508,411.736 210.264,410.508 212.331,410.581C214.787,410.668 217.273,410.748 219.792,410.82C221.86,410.879 223.477,412.214 223.4,413.8C223.322,415.386 221.581,416.625 219.512,416.566C216.971,416.493 214.463,416.413 211.986,416.326Z" style="fill:white;"/>
            </g>
            <g transform="matrix(1,0,0,1.30423,29,-129.596)">
                <path d="M234.565,416.903C232.496,416.869 230.852,415.553 230.897,413.967C230.941,412.38 232.657,411.12 234.726,411.154C237.187,411.194 239.677,411.228 242.198,411.256C244.267,411.278 245.924,412.585 245.894,414.171C245.865,415.758 244.161,417.028 242.091,417.005C239.552,416.978 237.044,416.944 234.565,416.903Z" style="fill:white;"/>
            </g>
            <g transform="matrix(1,0,0,1.30423,29,-129.596)">
                <path d="M257.14,417.092C255.07,417.09 253.392,415.801 253.394,414.214C253.396,412.627 255.079,411.34 257.148,411.342C257.603,411.342 258.059,411.342 258.515,411.342C260.525,411.342 262.538,411.324 264.555,411.287C266.624,411.25 268.343,412.508 268.392,414.094C268.441,415.681 266.8,416.999 264.731,417.036C262.655,417.074 260.583,417.093 258.515,417.093C258.056,417.093 257.597,417.093 257.14,417.092Z" style="fill:white;"/>
            </g>
            <g transform="matrix(1,0,0,1.30423,29,-129.596)">
                <path d="M279.909,416.448C277.845,416.569 276.042,415.383 275.883,413.8C275.725,412.218 277.272,410.835 279.336,410.714C281.791,410.57 284.251,410.402 286.717,410.211C288.776,410.052 290.616,411.205 290.824,412.783C291.032,414.362 289.528,415.773 287.469,415.933C284.944,416.128 282.424,416.3 279.909,416.448Z" style="fill:white;"/>
            </g>
            <g transform="matrix(1,0,0,1.30423,29,-129.596)">
                <path d="M302.517,414.51C300.468,414.737 298.565,413.647 298.268,412.077C297.971,410.506 299.393,409.046 301.441,408.819C303.883,408.547 306.33,408.256 308.78,407.947C310.822,407.689 312.754,408.75 313.09,410.316C313.427,411.882 312.042,413.363 310,413.621C307.501,413.936 305.007,414.233 302.517,414.51Z" style="fill:white;"/>
            </g>
            <g transform="matrix(1,0,0,1.30423,29,-129.596)">
                <path d="M324.882,411.531C322.853,411.843 320.875,410.833 320.467,409.277C320.06,407.721 321.377,406.205 323.406,405.892C325.831,405.519 328.259,405.13 330.691,404.726C332.714,404.39 334.712,405.376 335.151,406.927C335.589,408.478 334.303,410.01 332.28,410.346C329.81,410.756 327.344,411.152 324.882,411.531Z" style="fill:white;"/>
            </g>
            <g transform="matrix(1,0,0,1.30423,29,-129.596)">
                <path d="M346.993,407.736C344.983,408.114 342.95,407.17 342.457,405.628C341.964,404.087 343.196,402.529 345.206,402.151C347.613,401.698 350.023,401.233 352.437,400.756C354.441,400.36 356.487,401.286 357.004,402.823C357.521,404.359 356.313,405.928 354.309,406.325C351.867,406.807 349.428,407.278 346.993,407.736Z" style="fill:white;"/>
            </g>
            <g transform="matrix(1,0,0,1.30423,29,-129.596)">
                <path d="M368.867,403.322C366.874,403.749 364.803,402.855 364.246,401.327C363.688,399.798 364.854,398.211 366.847,397.783C369.239,397.271 371.633,396.749 374.03,396.217C376.019,395.777 378.099,396.657 378.674,398.182C379.248,399.706 378.1,401.302 376.112,401.742C373.694,402.278 371.279,402.804 368.867,403.322Z" style="fill:white;"/>
            </g>
            <g transform="matrix(1,0,0,1.30423,29,-129.596)">
                <path d="M433.486,387.931C431.52,388.427 429.398,387.606 428.751,386.099C428.104,384.591 429.174,382.965 431.14,382.469C433.512,381.87 435.885,381.27 438.259,380.668C440.225,380.171 442.347,380.99 442.996,382.497C443.645,384.004 442.577,385.631 440.611,386.129C438.235,386.731 435.859,387.332 433.486,387.931Z" style="fill:white;"/>
            </g>
            <g transform="matrix(1,0,0,1.30423,29,-129.596)">
                <path d="M454.853,382.523C452.887,383.02 450.765,382.2 450.117,380.692C449.469,379.185 450.539,377.558 452.505,377.062C454.88,376.461 457.257,375.862 459.635,375.264C461.601,374.769 463.722,375.591 464.367,377.099C465.012,378.607 463.939,380.233 461.972,380.728C459.598,381.325 457.225,381.924 454.853,382.523Z" style="fill:white;"/>
            </g>
            <g transform="matrix(1,0,0,1.30423,29,-129.596)">
                <path d="M476.218,377.172C474.248,377.659 472.133,376.828 471.498,375.318C470.863,373.808 471.947,372.186 473.916,371.699C476.301,371.11 478.686,370.524 481.072,369.942C483.044,369.46 485.155,370.297 485.783,371.809C486.41,373.322 485.319,374.94 483.347,375.421C480.97,376.001 478.593,376.585 476.218,377.172Z" style="fill:white;"/>
            </g>
            <g transform="matrix(1,0,0,1.30423,29,-129.596)">
                <path d="M497.626,371.993C495.648,372.459 493.548,371.606 492.94,370.09C492.331,368.573 493.444,366.963 495.422,366.496C497.821,365.931 500.22,365.371 502.619,364.818C504.601,364.36 506.694,365.223 507.29,366.743C507.887,368.262 506.762,369.867 504.78,370.324C502.395,370.874 500.01,371.431 497.626,371.993Z" style="fill:white;"/>
            </g>
            <g transform="matrix(1,0,0,1.30423,29,-129.596)">
                <path d="M519.121,367.102C517.131,367.536 515.054,366.65 514.487,365.124C513.92,363.598 515.076,362.006 517.067,361.571C519.484,361.043 521.902,360.523 524.32,360.013C526.315,359.591 528.381,360.491 528.931,362.021C529.481,363.551 528.307,365.135 526.312,365.557C523.915,366.063 521.518,366.578 519.121,367.102Z" style="fill:white;"/>
            </g>
            <g transform="matrix(1,0,0,1.30423,29,-129.596)">
                <path d="M540.738,362.624C538.732,363.015 536.69,362.083 536.18,360.545C535.67,359.007 536.885,357.441 538.891,357.05C541.331,356.575 543.771,356.11 546.211,355.657C548.222,355.284 550.251,356.233 550.738,357.775C551.225,359.317 549.987,360.873 547.976,361.246C545.564,361.694 543.151,362.153 540.738,362.624Z" style="fill:white;"/>
            </g>
            <g transform="matrix(1,0,0,1.30423,29,-129.596)">
                <path d="M562.503,358.696C560.48,359.029 558.484,358.041 558.048,356.49C557.613,354.938 558.902,353.408 560.925,353.074C563.391,352.667 565.857,352.274 568.321,351.895C570.35,351.584 572.328,352.594 572.735,354.15C573.141,355.706 571.823,357.222 569.794,357.534C567.365,357.907 564.934,358.294 562.503,358.696Z" style="fill:white;"/>
            </g>
            <g transform="matrix(1,0,0,1.30423,29,-129.596)">
                <path d="M584.428,355.467C582.387,355.729 580.452,354.671 580.11,353.106C579.768,351.541 581.148,350.057 583.189,349.795C585.681,349.475 588.172,349.172 590.662,348.887C592.709,348.652 594.619,349.736 594.925,351.305C595.231,352.875 593.818,354.34 591.771,354.574C589.324,354.855 586.877,355.152 584.428,355.467Z" style="fill:white;"/>
            </g>
            <g transform="matrix(1,0,0,1.30423,29,-129.596)">
                <path d="M650.942,351.63C648.873,351.6 647.225,350.288 647.264,348.701C647.302,347.115 649.014,345.851 651.083,345.88C653.601,345.917 656.119,345.967 658.635,346.032C660.704,346.085 662.327,347.415 662.258,349.001C662.189,350.587 660.454,351.832 658.385,351.779C655.905,351.716 653.424,351.666 650.942,351.63Z" style="fill:white;"/>
            </g>
            <g transform="matrix(1,0,0,1.30423,29,-129.596)">
                <path d="M673.262,352.322C671.197,352.224 669.623,350.859 669.75,349.275C669.877,347.691 671.658,346.485 673.723,346.582C676.236,346.701 678.747,346.833 681.257,346.978C683.321,347.097 684.87,348.478 684.715,350.06C684.559,351.643 682.758,352.831 680.694,352.712C678.218,352.569 675.741,352.439 673.262,352.322Z" style="fill:white;"/>
            </g>
            <g transform="matrix(1,0,0,1.30423,29,-129.596)">
                <path d="M695.536,353.72C693.477,353.56 691.976,352.147 692.186,350.569C692.395,348.99 694.237,347.839 696.296,347.999C697.346,348.081 698.394,348.166 699.443,348.252C700.896,348.371 702.349,348.495 703.8,348.623C705.856,348.803 707.334,350.23 707.098,351.807C706.862,353.383 705.001,354.517 702.945,354.336C701.512,354.21 700.078,354.087 698.643,353.969C697.608,353.884 696.572,353.801 695.536,353.72Z" style="fill:white;"/>
            </g>
            <g transform="matrix(1,0,0,1.30423,29,-129.596)">
                <path d="M717.732,355.78C715.683,355.56 714.251,354.106 714.538,352.534C714.825,350.962 716.722,349.865 718.771,350.085C721.264,350.352 723.753,350.631 726.237,350.921C728.283,351.159 729.692,352.627 729.381,354.196C729.069,355.765 727.155,356.845 725.109,356.606C722.655,356.32 720.196,356.044 717.732,355.78Z" style="fill:white;"/>
            </g>
            <g transform="matrix(1,0,0,1.30423,29,-129.596)">
                <path d="M739.824,358.458C737.786,358.183 736.422,356.691 736.781,355.128C737.14,353.565 739.087,352.52 741.125,352.795C743.604,353.13 746.078,353.475 748.546,353.83C750.58,354.123 751.921,355.627 751.539,357.187C751.157,358.747 749.195,359.775 747.161,359.482C744.721,359.131 742.275,358.789 739.824,358.458Z" style="fill:white;"/>
            </g>
            <g transform="matrix(1,0,0,1.30423,29,-129.596)">
                <path d="M761.79,361.718C759.765,361.391 758.467,359.865 758.894,358.312C759.321,356.759 761.312,355.764 763.337,356.092C765.801,356.49 768.257,356.898 770.707,357.315C772.727,357.659 774.003,359.196 773.554,360.745C773.105,362.294 771.101,363.273 769.08,362.929C766.657,362.516 764.227,362.112 761.79,361.718Z" style="fill:white;"/>
            </g>
            <g transform="matrix(1,0,0,1.30423,29,-129.596)">
                <path d="M783.611,365.527C781.6,365.151 780.367,363.593 780.858,362.052C781.35,360.51 783.381,359.565 785.391,359.941C787.838,360.4 790.276,360.867 792.705,361.342C794.71,361.735 795.923,363.302 795.411,364.84C794.899,366.377 792.855,367.307 790.85,366.914C788.445,366.444 786.032,365.981 783.611,365.527Z" style="fill:white;"/>
            </g>
            <g transform="matrix(1,0,0,1.30423,29,-129.596)">
                <path d="M805.271,369.857C803.277,369.434 802.106,367.848 802.658,366.319C803.211,364.79 805.279,363.892 807.273,364.316C809.702,364.831 812.12,365.355 814.527,365.886C816.516,366.325 817.666,367.919 817.094,369.444C816.522,370.969 814.442,371.851 812.453,371.412C810.07,370.886 807.676,370.368 805.271,369.857Z" style="fill:white;"/>
            </g>
            <g transform="matrix(1,0,0,1.30423,29,-129.596)">
                <path d="M826.756,374.685C824.779,374.216 823.67,372.605 824.281,371.089C824.892,369.573 826.994,368.722 828.971,369.191C831.38,369.762 833.776,370.339 836.16,370.924C838.132,371.407 839.221,373.027 838.59,374.538C837.96,376.05 835.848,376.884 833.876,376.401C831.515,375.822 829.142,375.25 826.756,374.685Z" style="fill:white;"/>
            </g>
            <g transform="matrix(1,0,0,1.30423,29,-129.596)">
                <path d="M890.005,391.995C888.088,391.398 887.163,389.719 887.942,388.249C888.72,386.778 890.909,386.07 892.827,386.667C895.171,387.396 897.494,388.13 899.796,388.867C901.706,389.478 902.609,391.163 901.812,392.627C901.015,394.092 898.817,394.785 896.907,394.173C894.627,393.444 892.326,392.717 890.005,391.995Z" style="fill:white;"/>
            </g>
            <g transform="matrix(1,0,0,1.30423,29,-129.596)">
                <path d="M910.624,398.685C908.73,398.045 907.87,396.346 908.705,394.894C909.54,393.442 911.755,392.782 913.649,393.422C915.968,394.206 918.262,394.992 920.531,395.779C922.417,396.434 923.254,398.139 922.401,399.584C921.547,401.03 919.323,401.672 917.438,401.018C915.192,400.238 912.92,399.46 910.624,398.685Z" style="fill:white;"/>
            </g>
            <g transform="matrix(1,0,0,1.30423,29,-129.596)">
                <path d="M930.968,405.844C929.1,405.159 928.309,403.441 929.201,402.01C930.094,400.578 932.335,399.971 934.202,400.655C936.495,401.496 938.757,402.336 940.988,403.177C942.845,403.877 943.612,405.601 942.7,407.025C941.787,408.45 939.538,409.038 937.68,408.338C935.473,407.506 933.235,406.675 930.968,405.844Z" style="fill:white;"/>
            </g>
        </g>
    </g>
</svg>
